<svg id="icons" xmlns="http://www.w3.org/2000/svg" viewBox="0 0 96 96"><defs><style>.cls-1{fill:#69ebf0;}.cls-2{fill:#49dbe5;}.cls-3{fill:#f3aa9b;}.cls-4{fill:#ee856f;}.cls-5{fill:#f7eade;}.cls-6{fill:none;stroke:#2b3444;stroke-linecap:round;stroke-linejoin:round;stroke-width:2px;}</style></defs><title>engagement-ring</title><g id="_Group_" data-name="&lt;Group&gt;"><circle class="cls-1" cx="17" cy="46" r="2"/><circle class="cls-2" cx="78" cy="33" r="3"/><polygon class="cls-3" points="62 22.67 55 22.67 48 15 54 15 62 22.67"/><polygon class="cls-4" points="62 22.67 48 37 55 22.67 62 22.67"/><polygon class="cls-4" points="41 22.67 48 37 34 22.67 41 22.67"/><polygon class="cls-3" points="48 15 41 22.67 34 22.67 42 15 48 15"/><polygon class="cls-3" points="55 22.67 48 37 41 22.67 55 22.67"/><path class="cls-5" d="M48,37A25,25,0,1,1,23,62,25,25,0,0,1,48,37ZM67,62A19,19,0,1,0,48,81,19.024,19.024,0,0,0,67,62Z"/><polygon class="cls-4" points="48 15 55 22.67 41 22.67 48 15"/><path class="cls-6" d="M73,62A25,25,0,1,1,48,37,25,25,0,0,1,73,62Z"/><path class="cls-6" d="M48,81A19,19,0,1,1,67,62,19.017,19.017,0,0,1,48,81Z"/><polygon class="cls-6" points="62 22.67 54 15 48 15 42 15 34 22.67 48 37 62 22.67"/><line class="cls-6" x1="60" y1="15" x2="66" y2="9"/><line class="cls-6" x1="64" y1="19" x2="70" y2="17"/><line class="cls-6" x1="36" y1="15" x2="30" y2="9"/><line class="cls-6" x1="32" y1="19" x2="26" y2="17"/><polyline class="cls-6" points="34 22.67 41 22.67 55 22.67 62 22.67"/><polyline class="cls-6" points="48 15 41 22.67 48 37"/><polyline class="cls-6" points="48 15 55 22.67 48 37"/><circle class="cls-6" cx="78" cy="33" r="3"/><circle class="cls-6" cx="17" cy="46" r="2"/></g></svg>